#!OML:ASF H:\ManfredObstacles\Project 1\Capture day 1\Session 1\Male.ASF
:FULLY-SPECIFIED
:DEGREES
379
root 0.706962 16.441 -15.4164 -166.734 -9.55444 -176.08
lowerback -9.76039 -2.53153 1.70095
upperback 0.494408 -3.87777 3.11825
thorax 6.10475 -1.95388 1.72726
lowerneck 0.785755 -1.70054 -5.7952
upperneck -13.9998 -2.16061 11.6036
head -4.06238 -1.7764 4.65933
rclavicle 3.11595e-014 -2.96189e-014
rhumerus -33.3119 -24.6479 -74.6669
rradius 25.9597
rwrist 32.4729
rhand -2.3006 -8.26775
rfingers 7.12502
rthumb 23.385 -36.867
lclavicle 3.11595e-014 -2.96189e-014
lhumerus -22.421 0.669523 94.1266
lradius 19.6241
lwrist -28.5526
lhand -7.40319 8.41481
lfingers 7.12502
lthumb 18.483 37.5567
rfemur -36.5283 -7.79611 24.9679
rtibia 27.4787
rfoot -10.2636 15.2515
rtoes 13.0369
lfemur 9.48958 -0.033778 -12.6569
ltibia 1.59028e-014
lfoot -1.30149 -12.9236
ltoes -0.867815
380
root 0.699236 16.4409 -15.4199 -166.696 -9.46476 -176.081
lowerback -9.88919 -2.5337 1.67065
upperback 0.547172 -3.88373 3.12232
thorax 6.23596 -1.95648 1.74077
lowerneck 0.456032 -1.75819 -5.63079
upperneck -13.7915 -2.24974 11.4715
head -3.94077 -1.80862 4.58057
rclavicle 1.61016e-014 2.78299e-015
rhumerus -33.3944 -25.1894 -74.313
rradius 25.6524
rwrist 33.0134
rhand -2.16425 -8.17606
rfingers 7.12502
rthumb 23.5158 -36.7586
lclavicle 1.61016e-014 2.78299e-015
lhumerus -22.5461 1.37254 93.7832
lradius 19.3075
lwrist -29.1039
lhand -7.36944 8.60608
lfingers 7.12502
lthumb 18.5155 37.7449
rfemur -36.5219 -7.7458 24.9319
rtibia 27.3967
rfoot -10.0681 15.2907
rtoes 12.4773
lfemur 9.48387 0.0554938 -12.6995
ltibia -3.18055e-014
lfoot -1.27345 -12.9542
ltoes -1.54523
381
root 0.690263 16.441 -15.4263 -166.665 -9.40134 -176.04
lowerback -10.0402 -2.58116 1.65618
upperback 0.602223 -3.95984 3.18298
thorax 6.38734 -1.99535 1.79278
lowerneck 0.425765 -1.7107 -5.75265
upperneck -13.9611 -2.18663 11.6378
head -3.98729 -1.79395 4.65688
rclavicle 4.14466e-014 -2.64384e-014
rhumerus -33.351 -25.3424 -74.0703
rradius 25.3455
rwrist 33.3264
rhand -2.16804 -8.06229
rfingers 7.12502
rthumb 23.5122 -36.6453
lclavicle 4.14466e-014 -2.64384e-014
lhumerus -22.587 1.94758 93.5235
lradius 18.9855
lwrist -29.2645
lhand -7.36026 8.79064
lfingers 7.12502
lthumb 18.5243 37.9286
rfemur -36.5096 -7.78052 24.9838
rtibia 27.3341
rfoot -9.90411 15.3531
rtoes 11.7574
lfemur 9.47755 0.128756 -12.6962
ltibia -3.18055e-015
lfoot -1.21462 -12.9486
ltoes -1.26205
382
root 0.68079 16.4411 -15.4318 -166.608 -9.32467 -175.957
lowerback -10.1277 -2.60275 1.73131
upperback 0.572739 -4.00784 3.23139
thorax 6.4056 -2.01904 1.79053
lowerneck 0.509423 -1.67517 -5.83629
upperneck -14.1236 -2.13962 11.7207
head -4.0519 -1.78279 4.70246
rclavicle 4.82053e-015 1.19271e-015
rhumerus -33.4425 -25.2656 -73.8902
rradius 25.1988
rwrist 33.4627
rhand -2.08881 -8.1693
rfingers 7.12502
rthumb 23.5882 -36.7426
lclavicle 4.82053e-015 1.19271e-015
lhumerus -22.7258 2.43082 93.2696
lradius 18.6684
lwrist -29.2037
lhand -7.33411 8.84403
lfingers 7.12502
lthumb 18.5495 37.9796
rfemur -36.5407 -7.79883 25.0901
rtibia 27.278
rfoot -9.98037 15.4622
rtoes 12.3177
lfemur 9.43285 0.229163 -12.6509
ltibia 2.54444e-014
lfoot -1.15046 -12.9389
ltoes -1.17632
383
root 0.674563 16.4431 -15.4342 -166.503 -9.31003 -175.901
lowerback -10.1899 -2.59766 1.81738
upperback 0.51339 -4.01495 3.23799
thorax 6.3728 -2.02119 1.74645
lowerneck 0.52101 -1.66252 -5.85685
upperneck -14.2049 -2.1221 11.7885
head -4.07836 -1.78345 4.72974
rclavicle -3.3694e-014 3.08116e-014
rhumerus -33.5652 -25.3653 -73.6891
rradius 25.0323
rwrist 33.6327
rhand -2.06646 -8.25059
rfingers 7.12502
rthumb 23.6096 -36.8211
lclavicle -3.3694e-014 3.08116e-014
lhumerus -22.7801 2.96006 92.9932
lradius 18.3733
lwrist -29.2253
lhand -7.15351 8.98923
lfingers 7.12502
lthumb 18.7232 38.1082
rfemur -36.6358 -7.68092 25.1041
rtibia 27.253
rfoot -10.143 15.417
rtoes 13.2077
lfemur 9.3201 0.270416 -12.6122
ltibia 1.90833e-014
lfoot -1.16158 -12.9211
ltoes -1.61562
